<?xml version="1.0" encoding="UTF-8" ?>
<!DOCTYPE svg PUBLIC "-//W3C//DTD SVG 1.1//EN" "http://www.w3.org/Graphics/SVG/1.1/DTD/svg11.dtd">
<svg width="318pt" height="319pt" viewBox="0 0 318 319" version="1.1" xmlns="http://www.w3.org/2000/svg">
<g id="#000000ff">
<path fill="#000000" opacity="1.00" d=" M 96.33 14.35 C 136.26 -2.97 183.21 -2.62 222.95 15.11 C 256.43 29.70 284.38 56.66 300.59 89.36 C 307.24 104.51 313.19 120.18 315.40 136.67 C 320.10 170.50 313.75 205.76 298.02 236.04 C 274.06 279.10 229.67 312.85 179.56 316.38 C 155.54 318.72 130.73 318.87 107.81 310.30 C 88.90 303.72 70.69 294.45 55.54 281.22 C 61.11 276.56 66.22 270.77 73.16 268.27 C 78.54 268.65 82.42 273.61 87.13 275.80 C 109.44 290.97 136.87 296.10 163.44 295.66 C 187.71 294.45 212.02 288.15 232.57 274.88 C 232.91 260.35 221.87 249.10 211.32 240.66 C 201.06 232.33 188.43 228.18 176.37 223.30 C 187.00 221.92 197.80 221.59 208.48 222.75 C 202.88 208.28 193.94 195.37 187.45 181.29 C 181.41 188.67 176.27 196.77 169.71 203.72 C 155.49 219.32 137.03 230.31 117.97 238.99 C 106.93 244.19 94.66 245.71 83.04 249.16 C 70.63 253.55 62.28 264.47 51.61 271.66 C 49.83 274.45 47.01 271.81 45.43 270.58 C 24.31 250.40 10.84 223.17 5.40 194.62 C 1.58 174.04 0.05 152.80 3.09 132.00 C 8.43 103.28 20.81 75.44 41.28 54.28 C 57.23 38.06 75.66 24.00 96.33 14.35 M 77.83 51.84 C 41.90 78.09 20.76 123.01 23.47 167.43 C 25.81 194.20 35.41 220.63 52.47 241.57 C 61.72 228.36 68.20 213.54 75.06 199.03 C 97.03 154.50 119.48 110.20 142.13 66.03 C 144.31 61.43 151.56 57.45 155.21 62.78 C 162.11 71.50 165.63 82.34 171.11 91.94 C 173.95 98.40 180.08 104.61 177.22 112.29 C 174.69 121.32 170.96 130.00 167.47 138.69 C 160.67 128.11 155.46 116.65 149.39 105.65 C 145.10 112.34 142.34 119.83 138.91 126.96 C 127.36 151.45 115.37 175.75 102.86 199.77 C 98.98 207.54 94.82 215.20 91.94 223.42 C 123.25 215.22 150.10 193.22 166.67 165.69 C 174.24 152.16 176.72 136.65 182.30 122.33 C 187.01 108.78 194.81 96.12 205.74 86.72 C 214.61 79.16 224.93 71.97 236.92 70.94 C 231.80 78.68 224.56 84.84 220.16 93.10 C 209.80 109.30 205.17 128.40 203.37 147.35 C 203.07 153.11 206.64 158.10 208.75 163.19 C 218.91 183.26 229.43 203.15 239.97 223.02 C 245.70 233.68 249.89 245.11 255.92 255.62 C 294.52 216.99 305.88 154.50 283.21 104.81 C 273.82 85.48 261.47 66.93 243.98 54.03 C 222.07 36.31 194.55 25.97 166.46 24.29 C 134.92 22.95 102.92 32.57 77.83 51.84 Z" />
</g>
</svg>
