<?xml version="1.0" encoding="UTF-8" ?>
<!DOCTYPE svg PUBLIC "-//W3C//DTD SVG 1.1//EN" "http://www.w3.org/Graphics/SVG/1.1/DTD/svg11.dtd">
<svg width="318pt" height="319pt" viewBox="0 0 318 319" version="1.1" xmlns="http://www.w3.org/2000/svg">
<g id="#ffffffff">
<path fill="#ffffff" opacity="1.00" d=" M 133.62 3.71 C 162.67 -1.79 192.86 3.00 220.10 13.86 C 247.08 24.89 269.93 44.44 287.57 67.39 C 306.62 95.31 317.86 129.03 316.93 163.01 C 315.63 194.49 306.62 226.22 287.88 251.86 C 272.53 272.47 253.27 290.65 230.03 302.06 C 209.33 313.10 185.56 316.94 162.33 317.43 C 131.63 320.24 101.21 310.23 74.77 295.24 C 67.88 291.26 61.54 286.41 55.52 281.22 C 60.45 276.88 65.42 272.46 71.08 269.09 C 75.08 266.44 78.95 271.03 82.17 272.76 C 125.79 303.93 187.79 302.63 232.88 275.09 C 232.52 267.44 229.87 259.94 224.90 254.08 C 213.05 238.33 194.71 229.61 176.59 223.15 C 187.18 222.07 197.89 221.65 208.48 222.84 C 206.02 215.94 202.75 209.37 198.93 203.14 C 194.71 195.97 191.77 188.07 186.97 181.24 C 177.79 194.37 168.12 207.51 155.02 217.02 C 136.21 230.85 115.00 242.32 91.89 246.81 C 87.44 248.06 82.56 248.22 78.47 250.54 C 68.15 257.58 58.87 265.99 48.92 273.52 C 27.27 254.17 12.62 227.74 6.50 199.44 C -0.17 168.29 -1.03 134.81 10.61 104.71 C 19.21 79.11 36.00 56.79 56.99 39.99 C 78.57 21.17 105.02 7.43 133.62 3.71 M 51.07 78.11 C 34.77 98.62 26.01 124.20 23.18 150.03 C 21.81 182.65 31.53 216.42 52.61 241.70 C 61.65 229.22 67.38 214.81 74.09 201.04 C 96.32 155.81 119.16 110.87 142.13 66.03 C 144.24 61.42 149.62 60.88 153.93 59.83 C 162.89 74.36 170.07 89.94 177.62 105.22 C 177.82 117.05 171.47 127.78 167.45 138.65 C 160.32 128.12 155.49 116.31 149.28 105.26 C 134.21 136.68 119.42 168.26 103.25 199.14 C 99.14 207.08 94.97 215.02 91.75 223.37 C 124.72 214.85 153.37 191.13 169.01 161.02 C 178.75 139.97 180.60 115.31 195.99 96.99 C 206.43 84.62 220.33 73.42 236.74 70.81 C 229.36 81.08 220.35 90.38 215.02 102.00 C 208.35 115.95 205.03 131.26 203.42 146.57 C 202.73 151.84 205.78 156.56 207.72 161.20 C 216.98 180.62 227.88 199.20 237.49 218.45 C 244.39 230.48 248.84 243.72 255.92 255.65 C 279.32 231.52 294.10 198.76 294.83 164.97 C 296.95 119.39 274.10 73.27 235.94 48.07 C 216.28 33.98 192.42 26.43 168.47 24.28 C 123.58 21.13 78.13 42.27 51.07 78.11 Z" />
</g>
</svg>
